<?xml version="1.0" encoding="UTF-8" standalone="no"?><svg xmlns="http://www.w3.org/2000/svg" xmlns:xlink="http://www.w3.org/1999/xlink" contentStyleType="text/css" height="399px" preserveAspectRatio="none" style="width:593px;height:399px;background:#FFFFFF;" version="1.1" viewBox="0 0 593 399" width="593px" zoomAndPan="magnify"><defs/><g><!--MD5=[a70b0d373322012744ecc119c63f921b]
cluster main--><g id="cluster_main"><path d="M8.5,6 L46.5,6 A3.75,3.75 0 0 1 49,8.5 L56,28.2969 L583.5,28.2969 A2.5,2.5 0 0 1 586,30.7969 L586,389.5 A2.5,2.5 0 0 1 583.5,392 L8.5,392 A2.5,2.5 0 0 1 6,389.5 L6,8.5 A2.5,2.5 0 0 1 8.5,6 " fill="none" style="stroke:#000000;stroke-width:1.5;"/><line style="stroke:#000000;stroke-width:1.5;" x1="6" x2="56" y1="28.2969" y2="28.2969"/><text fill="#000000" font-family="sans-serif" font-size="14" font-weight="bold" lengthAdjust="spacing" textLength="37" x="10" y="20.9951">main</text></g><!--MD5=[a558cb67de36c475fddfeb8eab3f2088]
class main.director--><g id="elem_main.director"><rect codeLine="2" fill="#F1F1F1" height="96.8906" id="main.director" rx="2.5" ry="2.5" style="stroke:#181818;stroke-width:0.5;" width="170" x="400" y="49"/><ellipse cx="454.25" cy="65" fill="#7FFFD4" rx="11" ry="11" style="stroke:#181818;stroke-width:1.0;"/><path d="M453.7344,65.5625 Q451.875,64.8594 451.2188,64.0938 Q450.5781,63.3125 450.5781,62 Q450.5781,60.3125 451.6563,59.3438 Q452.7344,58.375 454.6094,58.375 Q455.4688,58.375 456.3125,58.5781 Q457.1719,58.7656 458.0156,59.1563 L458.0156,61.5469 Q457.2344,60.9844 456.4063,60.7031 Q455.5938,60.4063 454.7969,60.4063 Q453.9219,60.4063 453.4375,60.7656 Q452.9688,61.125 452.9688,61.7813 Q452.9688,62.2969 453.3125,62.6406 Q453.6563,62.9688 454.75,63.375 L455.8125,63.7813 Q457.2969,64.3281 458,65.2344 Q458.7188,66.1406 458.7188,67.5156 Q458.7188,69.3906 457.6094,70.3125 Q456.5,71.2344 454.25,71.2344 Q453.3281,71.2344 452.4063,71.0156 Q451.4844,70.7969 450.625,70.375 L450.625,67.8438 Q451.5938,68.5313 452.5156,68.875 Q453.4375,69.2188 454.3281,69.2188 Q455.2344,69.2188 455.7344,68.8125 Q456.2344,68.3906 456.2344,67.6563 Q456.2344,67.0938 455.8906,66.6875 Q455.5625,66.2656 454.9375,66.0156 L453.7344,65.5625 Z " fill="#000000"/><text fill="#000000" font-family="sans-serif" font-size="14" lengthAdjust="spacing" textLength="53" x="474.75" y="69.8467">director</text><line style="stroke:#181818;stroke-width:0.5;" x1="401" x2="569" y1="81" y2="81"/><rect fill="none" height="6" style="stroke:#C82930;stroke-width:1.0;" width="6" x="408" y="91.6484"/><text fill="#000000" font-family="sans-serif" font-size="14" lengthAdjust="spacing" textLength="102" x="420" y="97.9951">builder iBuilder</text><line style="stroke:#181818;stroke-width:0.5;" x1="401" x2="569" y1="105.2969" y2="105.2969"/><rect fill="#F24D5C" height="6" style="stroke:#C82930;stroke-width:1.0;" width="6" x="408" y="115.9453"/><text fill="#000000" font-family="sans-serif" font-size="14" lengthAdjust="spacing" textLength="144" x="420" y="122.292">setBuilder(b iBuilder)</text><rect fill="#F24D5C" height="6" style="stroke:#C82930;stroke-width:1.0;" width="6" x="408" y="132.2422"/><text fill="#000000" font-family="sans-serif" font-size="14" lengthAdjust="spacing" textLength="136" x="420" y="138.5889">buildHouse() house</text></g><!--MD5=[ee2c0c3e22fb77faa5909969e71f6567]
class main.house--><g id="elem_main.house"><rect codeLine="9" fill="#F1F1F1" height="96.8906" id="main.house" rx="2.5" ry="2.5" style="stroke:#181818;stroke-width:0.5;" width="155" x="209.5" y="49"/><ellipse cx="260.75" cy="65" fill="#7FFFD4" rx="11" ry="11" style="stroke:#181818;stroke-width:1.0;"/><path d="M260.2344,65.5625 Q258.375,64.8594 257.7188,64.0938 Q257.0781,63.3125 257.0781,62 Q257.0781,60.3125 258.1563,59.3438 Q259.2344,58.375 261.1094,58.375 Q261.9688,58.375 262.8125,58.5781 Q263.6719,58.7656 264.5156,59.1563 L264.5156,61.5469 Q263.7344,60.9844 262.9063,60.7031 Q262.0938,60.4063 261.2969,60.4063 Q260.4219,60.4063 259.9375,60.7656 Q259.4688,61.125 259.4688,61.7813 Q259.4688,62.2969 259.8125,62.6406 Q260.1563,62.9688 261.25,63.375 L262.3125,63.7813 Q263.7969,64.3281 264.5,65.2344 Q265.2188,66.1406 265.2188,67.5156 Q265.2188,69.3906 264.1094,70.3125 Q263,71.2344 260.75,71.2344 Q259.8281,71.2344 258.9063,71.0156 Q257.9844,70.7969 257.125,70.375 L257.125,67.8438 Q258.0938,68.5313 259.0156,68.875 Q259.9375,69.2188 260.8281,69.2188 Q261.7344,69.2188 262.2344,68.8125 Q262.7344,68.3906 262.7344,67.6563 Q262.7344,67.0938 262.3906,66.6875 Q262.0625,66.2656 261.4375,66.0156 L260.2344,65.5625 Z " fill="#000000"/><text fill="#000000" font-family="sans-serif" font-size="14" lengthAdjust="spacing" textLength="44" x="281.25" y="69.8467">house</text><line style="stroke:#181818;stroke-width:0.5;" x1="210.5" x2="363.5" y1="81" y2="81"/><rect fill="none" height="6" style="stroke:#C82930;stroke-width:1.0;" width="6" x="217.5" y="91.6484"/><text fill="#000000" font-family="sans-serif" font-size="14" lengthAdjust="spacing" textLength="129" x="229.5" y="97.9951">windowType string</text><rect fill="none" height="6" style="stroke:#C82930;stroke-width:1.0;" width="6" x="217.5" y="107.9453"/><text fill="#000000" font-family="sans-serif" font-size="14" lengthAdjust="spacing" textLength="109" x="229.5" y="114.292">doorType string</text><rect fill="none" height="6" style="stroke:#C82930;stroke-width:1.0;" width="6" x="217.5" y="124.2422"/><text fill="#000000" font-family="sans-serif" font-size="14" lengthAdjust="spacing" textLength="51" x="229.5" y="130.5889">floor int</text><line style="stroke:#181818;stroke-width:0.5;" x1="210.5" x2="363.5" y1="137.8906" y2="137.8906"/></g><!--MD5=[b217d7a546bf7e54867485427b8b1137]
class main.iBuilder--><g id="elem_main.iBuilder"><rect codeLine="15" fill="#F1F1F1" height="113.1875" id="main.iBuilder" rx="2.5" ry="2.5" style="stroke:#181818;stroke-width:0.5;" width="152" x="22" y="41"/><ellipse cx="68.25" cy="57" fill="#B4A7E5" rx="11" ry="11" style="stroke:#181818;stroke-width:1.0;"/><path d="M64.1719,52.7656 L64.1719,50.6094 L71.5625,50.6094 L71.5625,52.7656 L69.0938,52.7656 L69.0938,60.8438 L71.5625,60.8438 L71.5625,63 L64.1719,63 L64.1719,60.8438 L66.6406,60.8438 L66.6406,52.7656 L64.1719,52.7656 Z " fill="#000000"/><text fill="#000000" font-family="sans-serif" font-size="14" font-style="italic" lengthAdjust="spacing" textLength="51" x="88.75" y="61.8467">iBuilder</text><line style="stroke:#181818;stroke-width:0.5;" x1="23" x2="173" y1="73" y2="73"/><line style="stroke:#181818;stroke-width:0.5;" x1="23" x2="173" y1="81" y2="81"/><rect fill="#F24D5C" height="6" style="stroke:#C82930;stroke-width:1.0;" width="6" x="30" y="91.6484"/><text fill="#000000" font-family="sans-serif" font-size="14" lengthAdjust="spacing" textLength="120" x="42" y="97.9951">setWindowType()</text><rect fill="#F24D5C" height="6" style="stroke:#C82930;stroke-width:1.0;" width="6" x="30" y="107.9453"/><text fill="#000000" font-family="sans-serif" font-size="14" lengthAdjust="spacing" textLength="100" x="42" y="114.292">setDoorType()</text><rect fill="#F24D5C" height="6" style="stroke:#C82930;stroke-width:1.0;" width="6" x="30" y="124.2422"/><text fill="#000000" font-family="sans-serif" font-size="14" lengthAdjust="spacing" textLength="98" x="42" y="130.5889">setNumFloor()</text><rect fill="#F24D5C" height="6" style="stroke:#C82930;stroke-width:1.0;" width="6" x="30" y="140.5391"/><text fill="#000000" font-family="sans-serif" font-size="14" lengthAdjust="spacing" textLength="126" x="42" y="146.8857">getHouse() house</text></g><!--MD5=[466060d85f4e112978093dbdd6a01999]
class main.iglooBuilder--><g id="elem_main.iglooBuilder"><rect codeLine="22" fill="#F1F1F1" height="162.0781" id="main.iglooBuilder" rx="2.5" ry="2.5" style="stroke:#181818;stroke-width:0.5;" width="155" x="22.5" y="214"/><ellipse cx="56.4" cy="230" fill="#7FFFD4" rx="11" ry="11" style="stroke:#181818;stroke-width:1.0;"/><path d="M55.8844,230.5625 Q54.025,229.8594 53.3688,229.0938 Q52.7281,228.3125 52.7281,227 Q52.7281,225.3125 53.8063,224.3438 Q54.8844,223.375 56.7594,223.375 Q57.6188,223.375 58.4625,223.5781 Q59.3219,223.7656 60.1656,224.1563 L60.1656,226.5469 Q59.3844,225.9844 58.5563,225.7031 Q57.7438,225.4063 56.9469,225.4063 Q56.0719,225.4063 55.5875,225.7656 Q55.1188,226.125 55.1188,226.7813 Q55.1188,227.2969 55.4625,227.6406 Q55.8063,227.9688 56.9,228.375 L57.9625,228.7813 Q59.4469,229.3281 60.15,230.2344 Q60.8688,231.1406 60.8688,232.5156 Q60.8688,234.3906 59.7594,235.3125 Q58.65,236.2344 56.4,236.2344 Q55.4781,236.2344 54.5563,236.0156 Q53.6344,235.7969 52.775,235.375 L52.775,232.8438 Q53.7438,233.5313 54.6656,233.875 Q55.5875,234.2188 56.4781,234.2188 Q57.3844,234.2188 57.8844,233.8125 Q58.3844,233.3906 58.3844,232.6563 Q58.3844,232.0938 58.0406,231.6875 Q57.7125,231.2656 57.0875,231.0156 L55.8844,230.5625 Z " fill="#000000"/><text fill="#000000" font-family="sans-serif" font-size="14" lengthAdjust="spacing" textLength="81" x="74.6" y="234.8467">iglooBuilder</text><line style="stroke:#181818;stroke-width:0.5;" x1="23.5" x2="176.5" y1="246" y2="246"/><rect fill="none" height="6" style="stroke:#C82930;stroke-width:1.0;" width="6" x="30.5" y="256.6484"/><text fill="#000000" font-family="sans-serif" font-size="14" lengthAdjust="spacing" textLength="129" x="42.5" y="262.9951">windowType string</text><rect fill="none" height="6" style="stroke:#C82930;stroke-width:1.0;" width="6" x="30.5" y="272.9453"/><text fill="#000000" font-family="sans-serif" font-size="14" lengthAdjust="spacing" textLength="109" x="42.5" y="279.292">doorType string</text><rect fill="none" height="6" style="stroke:#C82930;stroke-width:1.0;" width="6" x="30.5" y="289.2422"/><text fill="#000000" font-family="sans-serif" font-size="14" lengthAdjust="spacing" textLength="51" x="42.5" y="295.5889">floor int</text><line style="stroke:#181818;stroke-width:0.5;" x1="23.5" x2="176.5" y1="302.8906" y2="302.8906"/><rect fill="#F24D5C" height="6" style="stroke:#C82930;stroke-width:1.0;" width="6" x="30.5" y="313.5391"/><text fill="#000000" font-family="sans-serif" font-size="14" lengthAdjust="spacing" textLength="120" x="42.5" y="319.8857">setWindowType()</text><rect fill="#F24D5C" height="6" style="stroke:#C82930;stroke-width:1.0;" width="6" x="30.5" y="329.8359"/><text fill="#000000" font-family="sans-serif" font-size="14" lengthAdjust="spacing" textLength="100" x="42.5" y="336.1826">setDoorType()</text><rect fill="#F24D5C" height="6" style="stroke:#C82930;stroke-width:1.0;" width="6" x="30.5" y="346.1328"/><text fill="#000000" font-family="sans-serif" font-size="14" lengthAdjust="spacing" textLength="98" x="42.5" y="352.4795">setNumFloor()</text><rect fill="#F24D5C" height="6" style="stroke:#C82930;stroke-width:1.0;" width="6" x="30.5" y="362.4297"/><text fill="#000000" font-family="sans-serif" font-size="14" lengthAdjust="spacing" textLength="126" x="42.5" y="368.7764">getHouse() house</text></g><!--MD5=[96e3f9423ae59889fa070244b4c49a25]
class main.normalBuilder--><g id="elem_main.normalBuilder"><rect codeLine="33" fill="#F1F1F1" height="162.0781" id="main.normalBuilder" rx="2.5" ry="2.5" style="stroke:#181818;stroke-width:0.5;" width="155" x="212.5" y="214"/><ellipse cx="240.1" cy="230" fill="#7FFFD4" rx="11" ry="11" style="stroke:#181818;stroke-width:1.0;"/><path d="M239.5844,230.5625 Q237.725,229.8594 237.0688,229.0938 Q236.4281,228.3125 236.4281,227 Q236.4281,225.3125 237.5063,224.3438 Q238.5844,223.375 240.4594,223.375 Q241.3188,223.375 242.1625,223.5781 Q243.0219,223.7656 243.8656,224.1563 L243.8656,226.5469 Q243.0844,225.9844 242.2563,225.7031 Q241.4438,225.4063 240.6469,225.4063 Q239.7719,225.4063 239.2875,225.7656 Q238.8188,226.125 238.8188,226.7813 Q238.8188,227.2969 239.1625,227.6406 Q239.5063,227.9688 240.6,228.375 L241.6625,228.7813 Q243.1469,229.3281 243.85,230.2344 Q244.5688,231.1406 244.5688,232.5156 Q244.5688,234.3906 243.4594,235.3125 Q242.35,236.2344 240.1,236.2344 Q239.1781,236.2344 238.2563,236.0156 Q237.3344,235.7969 236.475,235.375 L236.475,232.8438 Q237.4438,233.5313 238.3656,233.875 Q239.2875,234.2188 240.1781,234.2188 Q241.0844,234.2188 241.5844,233.8125 Q242.0844,233.3906 242.0844,232.6563 Q242.0844,232.0938 241.7406,231.6875 Q241.4125,231.2656 240.7875,231.0156 L239.5844,230.5625 Z " fill="#000000"/><text fill="#000000" font-family="sans-serif" font-size="14" lengthAdjust="spacing" textLength="95" x="256.9" y="234.8467">normalBuilder</text><line style="stroke:#181818;stroke-width:0.5;" x1="213.5" x2="366.5" y1="246" y2="246"/><rect fill="none" height="6" style="stroke:#C82930;stroke-width:1.0;" width="6" x="220.5" y="256.6484"/><text fill="#000000" font-family="sans-serif" font-size="14" lengthAdjust="spacing" textLength="129" x="232.5" y="262.9951">windowType string</text><rect fill="none" height="6" style="stroke:#C82930;stroke-width:1.0;" width="6" x="220.5" y="272.9453"/><text fill="#000000" font-family="sans-serif" font-size="14" lengthAdjust="spacing" textLength="109" x="232.5" y="279.292">doorType string</text><rect fill="none" height="6" style="stroke:#C82930;stroke-width:1.0;" width="6" x="220.5" y="289.2422"/><text fill="#000000" font-family="sans-serif" font-size="14" lengthAdjust="spacing" textLength="51" x="232.5" y="295.5889">floor int</text><line style="stroke:#181818;stroke-width:0.5;" x1="213.5" x2="366.5" y1="302.8906" y2="302.8906"/><rect fill="#F24D5C" height="6" style="stroke:#C82930;stroke-width:1.0;" width="6" x="220.5" y="313.5391"/><text fill="#000000" font-family="sans-serif" font-size="14" lengthAdjust="spacing" textLength="120" x="232.5" y="319.8857">setWindowType()</text><rect fill="#F24D5C" height="6" style="stroke:#C82930;stroke-width:1.0;" width="6" x="220.5" y="329.8359"/><text fill="#000000" font-family="sans-serif" font-size="14" lengthAdjust="spacing" textLength="100" x="232.5" y="336.1826">setDoorType()</text><rect fill="#F24D5C" height="6" style="stroke:#C82930;stroke-width:1.0;" width="6" x="220.5" y="346.1328"/><text fill="#000000" font-family="sans-serif" font-size="14" lengthAdjust="spacing" textLength="98" x="232.5" y="352.4795">setNumFloor()</text><rect fill="#F24D5C" height="6" style="stroke:#C82930;stroke-width:1.0;" width="6" x="220.5" y="362.4297"/><text fill="#000000" font-family="sans-serif" font-size="14" lengthAdjust="spacing" textLength="126" x="232.5" y="368.7764">getHouse() house</text></g><!--MD5=[754c82ec7e455529d459a82dd0336c54]
reverse link main.iBuilder to main.iglooBuilder--><g id="link_main.iBuilder_main.iglooBuilder"><path codeLine="46" d="M98.78,174.55 C98.91,187.4 99.05,200.78 99.18,213.74 " fill="none" id="main.iBuilder-backto-main.iglooBuilder" style="stroke:#181818;stroke-width:1.0;"/><polygon fill="none" points="91.78,174.33,98.57,154.26,105.77,174.19,91.78,174.33" style="stroke:#181818;stroke-width:1.0;"/></g><!--MD5=[488679b9de9448ae117ee753826b82b9]
reverse link main.iBuilder to main.normalBuilder--><g id="link_main.iBuilder_main.normalBuilder"><path codeLine="47" d="M167.06,168.82 C181.72,183.75 197.29,199.6 212.25,214.84 " fill="none" id="main.iBuilder-backto-main.normalBuilder" style="stroke:#181818;stroke-width:1.0;"/><polygon fill="none" points="161.78,173.43,152.76,154.26,171.77,163.63,161.78,173.43" style="stroke:#181818;stroke-width:1.0;"/></g><!--MD5=[a1eb8bb53be837ba0c81bd77389a2b01]
@startuml
namespace main {
    class director << (S,Aquamarine) >> {
        - builder iBuilder

        - setBuilder(b iBuilder) 
        - buildHouse() house

    }
    class house << (S,Aquamarine) >> {
        - windowType string
        - doorType string
        - floor int

    }
    interface iBuilder  {
        - setWindowType() 
        - setDoorType() 
        - setNumFloor() 
        - getHouse() house

    }
    class iglooBuilder << (S,Aquamarine) >> {
        - windowType string
        - doorType string
        - floor int

        - setWindowType() 
        - setDoorType() 
        - setNumFloor() 
        - getHouse() house

    }
    class normalBuilder << (S,Aquamarine) >> {
        - windowType string
        - doorType string
        - floor int

        - setWindowType() 
        - setDoorType() 
        - setNumFloor() 
        - getHouse() house

    }
}

"main.iBuilder" <|- - "main.iglooBuilder"
"main.iBuilder" <|- - "main.normalBuilder"

@enduml

PlantUML version 1.2022.13(Sat Nov 19 13:22:17 UTC 2022)
(GPL source distribution)
Java Runtime: OpenJDK Runtime Environment
JVM: OpenJDK 64-Bit Server VM
Default Encoding: UTF-8
Language: en
Country: null
--></g></svg>