<?xml version="1.0" encoding="UTF-8" standalone="no"?><svg xmlns="http://www.w3.org/2000/svg" xmlns:xlink="http://www.w3.org/1999/xlink" contentStyleType="text/css" height="507px" preserveAspectRatio="none" style="width:683px;height:507px;background:#FFFFFF;" version="1.1" viewBox="0 0 683 507" width="683px" zoomAndPan="magnify"><defs/><g><!--MD5=[10791e4a4fa1a552707e3ba10d72d969]
cluster builder--><g id="cluster_builder"><path d="M8.5,6 L64.5,6 A3.75,3.75 0 0 1 67,8.5 L74,28.2969 L673.5,28.2969 A2.5,2.5 0 0 1 676,30.7969 L676,497.5 A2.5,2.5 0 0 1 673.5,500 L8.5,500 A2.5,2.5 0 0 1 6,497.5 L6,8.5 A2.5,2.5 0 0 1 8.5,6 " fill="none" style="stroke:#000000;stroke-width:1.5;"/><line style="stroke:#000000;stroke-width:1.5;" x1="6" x2="74" y1="28.2969" y2="28.2969"/><text fill="#000000" font-family="sans-serif" font-size="14" font-weight="bold" lengthAdjust="spacing" textLength="55" x="10" y="20.9951">builder</text></g><!--MD5=[6f60a302078dc142d1ed22e65704def8]
class builder.customElementA--><g id="elem_builder.customElementA"><rect codeLine="3" fill="#F1F1F1" height="129.4844" id="builder.customElementA" rx="2.5" ry="2.5" style="stroke:#181818;stroke-width:0.5;" width="301" x="22.5" y="355"/><ellipse cx="109.75" cy="371" fill="#7FFFD4" rx="11" ry="11" style="stroke:#181818;stroke-width:1.0;"/><path d="M109.2344,371.5625 Q107.375,370.8594 106.7188,370.0938 Q106.0781,369.3125 106.0781,368 Q106.0781,366.3125 107.1563,365.3438 Q108.2344,364.375 110.1094,364.375 Q110.9688,364.375 111.8125,364.5781 Q112.6719,364.7656 113.5156,365.1563 L113.5156,367.5469 Q112.7344,366.9844 111.9063,366.7031 Q111.0938,366.4063 110.2969,366.4063 Q109.4219,366.4063 108.9375,366.7656 Q108.4688,367.125 108.4688,367.7813 Q108.4688,368.2969 108.8125,368.6406 Q109.1563,368.9688 110.25,369.375 L111.3125,369.7813 Q112.7969,370.3281 113.5,371.2344 Q114.2188,372.1406 114.2188,373.5156 Q114.2188,375.3906 113.1094,376.3125 Q112,377.2344 109.75,377.2344 Q108.8281,377.2344 107.9063,377.0156 Q106.9844,376.7969 106.125,376.375 L106.125,373.8438 Q107.0938,374.5313 108.0156,374.875 Q108.9375,375.2188 109.8281,375.2188 Q110.7344,375.2188 111.2344,374.8125 Q111.7344,374.3906 111.7344,373.6563 Q111.7344,373.0938 111.3906,372.6875 Q111.0625,372.2656 110.4375,372.0156 L109.2344,371.5625 Z " fill="#000000"/><text fill="#000000" font-family="sans-serif" font-size="14" lengthAdjust="spacing" textLength="118" x="130.25" y="375.8467">customElementA</text><line style="stroke:#181818;stroke-width:0.5;" x1="23.5" x2="322.5" y1="387" y2="387"/><rect fill="none" height="6" style="stroke:#C82930;stroke-width:1.0;" width="6" x="30.5" y="397.6484"/><text fill="#000000" font-family="sans-serif" font-size="14" lengthAdjust="spacing" textLength="110" x="42.5" y="403.9951">attributeY string</text><rect fill="none" height="6" style="stroke:#C82930;stroke-width:1.0;" width="6" x="30.5" y="413.9453"/><text fill="#000000" font-family="sans-serif" font-size="14" lengthAdjust="spacing" textLength="89" x="42.5" y="420.292">attributeZ int</text><line style="stroke:#181818;stroke-width:0.5;" x1="23.5" x2="322.5" y1="427.5938" y2="427.5938"/><ellipse cx="33.5" cy="441.2422" fill="#84BE84" rx="3" ry="3" style="stroke:#038048;stroke-width:1.0;"/><text fill="#000000" font-family="sans-serif" font-size="14" lengthAdjust="spacing" textLength="100" x="42.5" y="444.5889">setAttributeY()</text><ellipse cx="33.5" cy="457.5391" fill="#84BE84" rx="3" ry="3" style="stroke:#038048;stroke-width:1.0;"/><text fill="#000000" font-family="sans-serif" font-size="14" lengthAdjust="spacing" textLength="101" x="42.5" y="460.8857">setAttributeZ()</text><ellipse cx="33.5" cy="473.8359" fill="#84BE84" rx="3" ry="3" style="stroke:#038048;stroke-width:1.0;"/><text fill="#000000" font-family="sans-serif" font-size="14" lengthAdjust="spacing" textLength="275" x="42.5" y="477.1826">newComplexElement() complexElement</text></g><!--MD5=[4338211bf8921c626e787f86c3c44537]
class builder.customElementB--><g id="elem_builder.customElementB"><rect codeLine="12" fill="#F1F1F1" height="129.4844" id="builder.customElementB" rx="2.5" ry="2.5" style="stroke:#181818;stroke-width:0.5;" width="301" x="358.5" y="355"/><ellipse cx="445.25" cy="371" fill="#7FFFD4" rx="11" ry="11" style="stroke:#181818;stroke-width:1.0;"/><path d="M444.7344,371.5625 Q442.875,370.8594 442.2188,370.0938 Q441.5781,369.3125 441.5781,368 Q441.5781,366.3125 442.6563,365.3438 Q443.7344,364.375 445.6094,364.375 Q446.4688,364.375 447.3125,364.5781 Q448.1719,364.7656 449.0156,365.1563 L449.0156,367.5469 Q448.2344,366.9844 447.4063,366.7031 Q446.5938,366.4063 445.7969,366.4063 Q444.9219,366.4063 444.4375,366.7656 Q443.9688,367.125 443.9688,367.7813 Q443.9688,368.2969 444.3125,368.6406 Q444.6563,368.9688 445.75,369.375 L446.8125,369.7813 Q448.2969,370.3281 449,371.2344 Q449.7188,372.1406 449.7188,373.5156 Q449.7188,375.3906 448.6094,376.3125 Q447.5,377.2344 445.25,377.2344 Q444.3281,377.2344 443.4063,377.0156 Q442.4844,376.7969 441.625,376.375 L441.625,373.8438 Q442.5938,374.5313 443.5156,374.875 Q444.4375,375.2188 445.3281,375.2188 Q446.2344,375.2188 446.7344,374.8125 Q447.2344,374.3906 447.2344,373.6563 Q447.2344,373.0938 446.8906,372.6875 Q446.5625,372.2656 445.9375,372.0156 L444.7344,371.5625 Z " fill="#000000"/><text fill="#000000" font-family="sans-serif" font-size="14" lengthAdjust="spacing" textLength="119" x="465.75" y="375.8467">customElementB</text><line style="stroke:#181818;stroke-width:0.5;" x1="359.5" x2="658.5" y1="387" y2="387"/><rect fill="none" height="6" style="stroke:#C82930;stroke-width:1.0;" width="6" x="366.5" y="397.6484"/><text fill="#000000" font-family="sans-serif" font-size="14" lengthAdjust="spacing" textLength="110" x="378.5" y="403.9951">attributeY string</text><rect fill="none" height="6" style="stroke:#C82930;stroke-width:1.0;" width="6" x="366.5" y="413.9453"/><text fill="#000000" font-family="sans-serif" font-size="14" lengthAdjust="spacing" textLength="89" x="378.5" y="420.292">attributeZ int</text><line style="stroke:#181818;stroke-width:0.5;" x1="359.5" x2="658.5" y1="427.5938" y2="427.5938"/><ellipse cx="369.5" cy="441.2422" fill="#84BE84" rx="3" ry="3" style="stroke:#038048;stroke-width:1.0;"/><text fill="#000000" font-family="sans-serif" font-size="14" lengthAdjust="spacing" textLength="100" x="378.5" y="444.5889">setAttributeY()</text><ellipse cx="369.5" cy="457.5391" fill="#84BE84" rx="3" ry="3" style="stroke:#038048;stroke-width:1.0;"/><text fill="#000000" font-family="sans-serif" font-size="14" lengthAdjust="spacing" textLength="101" x="378.5" y="460.8857">setAttributeZ()</text><ellipse cx="369.5" cy="473.8359" fill="#84BE84" rx="3" ry="3" style="stroke:#038048;stroke-width:1.0;"/><text fill="#000000" font-family="sans-serif" font-size="14" lengthAdjust="spacing" textLength="275" x="378.5" y="477.1826">newComplexElement() complexElement</text></g><!--MD5=[5588c9b32e015146eaaf10c5debbc104]
class builder.director--><g id="elem_builder.director"><rect codeLine="21" fill="#F1F1F1" height="96.8906" id="builder.director" rx="2.5" ry="2.5" style="stroke:#181818;stroke-width:0.5;" width="339" x="89.5" y="41"/><ellipse cx="228.25" cy="57" fill="#7FFFD4" rx="11" ry="11" style="stroke:#181818;stroke-width:1.0;"/><path d="M227.7344,57.5625 Q225.875,56.8594 225.2188,56.0938 Q224.5781,55.3125 224.5781,54 Q224.5781,52.3125 225.6563,51.3438 Q226.7344,50.375 228.6094,50.375 Q229.4688,50.375 230.3125,50.5781 Q231.1719,50.7656 232.0156,51.1563 L232.0156,53.5469 Q231.2344,52.9844 230.4063,52.7031 Q229.5938,52.4063 228.7969,52.4063 Q227.9219,52.4063 227.4375,52.7656 Q226.9688,53.125 226.9688,53.7813 Q226.9688,54.2969 227.3125,54.6406 Q227.6563,54.9688 228.75,55.375 L229.8125,55.7813 Q231.2969,56.3281 232,57.2344 Q232.7188,58.1406 232.7188,59.5156 Q232.7188,61.3906 231.6094,62.3125 Q230.5,63.2344 228.25,63.2344 Q227.3281,63.2344 226.4063,63.0156 Q225.4844,62.7969 224.625,62.375 L224.625,59.8438 Q225.5938,60.5313 226.5156,60.875 Q227.4375,61.2188 228.3281,61.2188 Q229.2344,61.2188 229.7344,60.8125 Q230.2344,60.3906 230.2344,59.6563 Q230.2344,59.0938 229.8906,58.6875 Q229.5625,58.2656 228.9375,58.0156 L227.7344,57.5625 Z " fill="#000000"/><text fill="#000000" font-family="sans-serif" font-size="14" lengthAdjust="spacing" textLength="53" x="248.75" y="61.8467">director</text><line style="stroke:#181818;stroke-width:0.5;" x1="90.5" x2="427.5" y1="73" y2="73"/><rect fill="none" height="6" style="stroke:#C82930;stroke-width:1.0;" width="6" x="97.5" y="83.6484"/><text fill="#000000" font-family="sans-serif" font-size="14" lengthAdjust="spacing" textLength="175" x="109.5" y="89.9951">buildSpecification iBuilder</text><line style="stroke:#181818;stroke-width:0.5;" x1="90.5" x2="427.5" y1="97.2969" y2="97.2969"/><ellipse cx="100.5" cy="110.9453" fill="#84BE84" rx="3" ry="3" style="stroke:#038048;stroke-width:1.0;"/><text fill="#000000" font-family="sans-serif" font-size="14" lengthAdjust="spacing" textLength="313" x="109.5" y="114.292">setBuilderConfiguration(specification iBuilder)</text><ellipse cx="100.5" cy="127.2422" fill="#84BE84" rx="3" ry="3" style="stroke:#038048;stroke-width:1.0;"/><text fill="#000000" font-family="sans-serif" font-size="14" lengthAdjust="spacing" textLength="279" x="109.5" y="130.5889">buildComplexElement() complexElement</text></g><!--MD5=[7e3d77cdc09a702d90bc1ea56ccc22e9]
class builder.iBuilder--><g id="elem_builder.iBuilder"><rect codeLine="28" fill="#F1F1F1" height="96.8906" id="builder.iBuilder" rx="2.5" ry="2.5" style="stroke:#181818;stroke-width:0.5;" width="301" x="108.5" y="198"/><ellipse cx="229.25" cy="214" fill="#B4A7E5" rx="11" ry="11" style="stroke:#181818;stroke-width:1.0;"/><path d="M225.1719,209.7656 L225.1719,207.6094 L232.5625,207.6094 L232.5625,209.7656 L230.0938,209.7656 L230.0938,217.8438 L232.5625,217.8438 L232.5625,220 L225.1719,220 L225.1719,217.8438 L227.6406,217.8438 L227.6406,209.7656 L225.1719,209.7656 Z " fill="#000000"/><text fill="#000000" font-family="sans-serif" font-size="14" font-style="italic" lengthAdjust="spacing" textLength="51" x="249.75" y="218.8467">iBuilder</text><line style="stroke:#181818;stroke-width:0.5;" x1="109.5" x2="408.5" y1="230" y2="230"/><line style="stroke:#181818;stroke-width:0.5;" x1="109.5" x2="408.5" y1="238" y2="238"/><ellipse cx="119.5" cy="251.6484" fill="#84BE84" rx="3" ry="3" style="stroke:#038048;stroke-width:1.0;"/><text fill="#000000" font-family="sans-serif" font-size="14" lengthAdjust="spacing" textLength="100" x="128.5" y="254.9951">setAttributeY()</text><ellipse cx="119.5" cy="267.9453" fill="#84BE84" rx="3" ry="3" style="stroke:#038048;stroke-width:1.0;"/><text fill="#000000" font-family="sans-serif" font-size="14" lengthAdjust="spacing" textLength="101" x="128.5" y="271.292">setAttributeZ()</text><ellipse cx="119.5" cy="284.2422" fill="#84BE84" rx="3" ry="3" style="stroke:#038048;stroke-width:1.0;"/><text fill="#000000" font-family="sans-serif" font-size="14" lengthAdjust="spacing" textLength="275" x="128.5" y="287.5889">newComplexElement() complexElement</text></g><!--MD5=[6cb23e30aa5bd020f07cabeff0fc393d]
class builder.complexElement--><g id="elem_builder.complexElement"><rect codeLine="33" fill="#F1F1F1" height="80.5938" id="builder.complexElement" rx="2.5" ry="2.5" style="stroke:#181818;stroke-width:0.5;" width="147" x="444.5" y="206"/><ellipse cx="459.5" cy="222" fill="#7FFFD4" rx="11" ry="11" style="stroke:#181818;stroke-width:1.0;"/><path d="M458.9844,222.5625 Q457.125,221.8594 456.4688,221.0938 Q455.8281,220.3125 455.8281,219 Q455.8281,217.3125 456.9063,216.3438 Q457.9844,215.375 459.8594,215.375 Q460.7188,215.375 461.5625,215.5781 Q462.4219,215.7656 463.2656,216.1563 L463.2656,218.5469 Q462.4844,217.9844 461.6563,217.7031 Q460.8438,217.4063 460.0469,217.4063 Q459.1719,217.4063 458.6875,217.7656 Q458.2188,218.125 458.2188,218.7813 Q458.2188,219.2969 458.5625,219.6406 Q458.9063,219.9688 460,220.375 L461.0625,220.7813 Q462.5469,221.3281 463.25,222.2344 Q463.9688,223.1406 463.9688,224.5156 Q463.9688,226.3906 462.8594,227.3125 Q461.75,228.2344 459.5,228.2344 Q458.5781,228.2344 457.6563,228.0156 Q456.7344,227.7969 455.875,227.375 L455.875,224.8438 Q456.8438,225.5313 457.7656,225.875 Q458.6875,226.2188 459.5781,226.2188 Q460.4844,226.2188 460.9844,225.8125 Q461.4844,225.3906 461.4844,224.6563 Q461.4844,224.0938 461.1406,223.6875 Q460.8125,223.2656 460.1875,223.0156 L458.9844,222.5625 Z " fill="#000000"/><text fill="#000000" font-family="sans-serif" font-size="14" lengthAdjust="spacing" textLength="115" x="473.5" y="226.8467">complexElement</text><line style="stroke:#181818;stroke-width:0.5;" x1="445.5" x2="590.5" y1="238" y2="238"/><rect fill="none" height="6" style="stroke:#C82930;stroke-width:1.0;" width="6" x="452.5" y="248.6484"/><text fill="#000000" font-family="sans-serif" font-size="14" lengthAdjust="spacing" textLength="110" x="464.5" y="254.9951">attributeY string</text><rect fill="none" height="6" style="stroke:#C82930;stroke-width:1.0;" width="6" x="452.5" y="264.9453"/><text fill="#000000" font-family="sans-serif" font-size="14" lengthAdjust="spacing" textLength="89" x="464.5" y="271.292">attributeZ int</text><line style="stroke:#181818;stroke-width:0.5;" x1="445.5" x2="590.5" y1="278.5938" y2="278.5938"/></g><!--MD5=[b5eeac9389b66cc0f89294b12085c350]
reverse link builder.director to builder.iBuilder--><g id="link_builder.director_builder.iBuilder"><path codeLine="40" d="M259,151.51 C259,166.92 259,183.25 259,197.89 " fill="none" id="builder.director-backto-builder.iBuilder" style="stroke:#181818;stroke-width:1.0;"/><polygon fill="#181818" points="259,138.27,255,144.27,259,150.27,263,144.27,259,138.27" style="stroke:#181818;stroke-width:1.0;"/></g><!--MD5=[3e5d27b202a8ad4e13b3b3fd0f30243e]
reverse link builder.iBuilder to builder.customElementA--><g id="link_builder.iBuilder_builder.customElementA"><path codeLine="46" d="M225.97,313.18 C219.09,326.85 211.86,341.23 205.03,354.82 " fill="none" id="builder.iBuilder-backto-builder.customElementA" style="stroke:#181818;stroke-width:1.0;stroke-dasharray:7.0,7.0;"/><polygon fill="none" points="219.8,309.86,235.04,295.13,232.31,316.15,219.8,309.86" style="stroke:#181818;stroke-width:1.0;"/></g><!--MD5=[855769bba614e2da3d4f28055a1b6175]
reverse link builder.iBuilder to builder.customElementB--><g id="link_builder.iBuilder_builder.customElementB"><path codeLine="47" d="M345.25,306.49 C368.05,322.09 392.76,338.99 415.9,354.82 " fill="none" id="builder.iBuilder-backto-builder.customElementB" style="stroke:#181818;stroke-width:1.0;stroke-dasharray:7.0,7.0;"/><polygon fill="none" points="341.19,312.2,328.64,295.13,349.1,300.65,341.19,312.2" style="stroke:#181818;stroke-width:1.0;"/></g><!--MD5=[4f13b7519511390f92347b76b1306a21]
link builder.iBuilder to builder.complexElement--><g id="link_builder.iBuilder_builder.complexElement"><path codeLine="51" d="M409.75,246.5 C419.59,246.5 429.43,246.5 439.27,246.5 " fill="none" id="builder.iBuilder-to-builder.complexElement" style="stroke:#181818;stroke-width:1.0;stroke-dasharray:1.0,3.0;"/><polygon fill="#181818" points="444.42,246.5,435.42,242.5,439.42,246.5,435.42,250.5,444.42,246.5" style="stroke:#181818;stroke-width:1.0;"/></g><!--MD5=[11f4ffbc13a92c60748404ad9270d1a3]
@startuml builder

namespace builder {
     class customElementA << (S,Aquamarine) >> {
        - attributeY string
        - attributeZ int

        + setAttributeY() 
        + setAttributeZ() 
        + newComplexElement() complexElement

    }
    class customElementB << (S,Aquamarine) >> {
        - attributeY string
        - attributeZ int

        + setAttributeY() 
        + setAttributeZ() 
        + newComplexElement() complexElement

    }
    class director << (S,Aquamarine) >> {
        - buildSpecification iBuilder

        + setBuilderConfiguration(specification iBuilder) 
        + buildComplexElement() complexElement

    }
    interface iBuilder  {
        + setAttributeY() 
        + setAttributeZ() 
        + newComplexElement() complexElement
    }
    class complexElement << (S,Aquamarine) >> {
        - attributeY string
        - attributeZ int

    }
}

"builder.director" *- - "builder.iBuilder"

/' together {
    class builder.customElementA
    class builder.customElementB
} '/
"builder.iBuilder" <|.. "builder.customElementA"
"builder.iBuilder" <|.. "builder.customElementB"

'hide builder.complexElement
'"builder.iBuilder" .> "builder.complexElement"
"builder.iBuilder" .[dotted,thickness=1]> "builder.complexElement"


@enduml

@startuml builder

namespace builder {
     class customElementA << (S,Aquamarine) >> {
        - attributeY string
        - attributeZ int

        + setAttributeY() 
        + setAttributeZ() 
        + newComplexElement() complexElement

    }
    class customElementB << (S,Aquamarine) >> {
        - attributeY string
        - attributeZ int

        + setAttributeY() 
        + setAttributeZ() 
        + newComplexElement() complexElement

    }
    class director << (S,Aquamarine) >> {
        - buildSpecification iBuilder

        + setBuilderConfiguration(specification iBuilder) 
        + buildComplexElement() complexElement

    }
    interface iBuilder  {
        + setAttributeY() 
        + setAttributeZ() 
        + newComplexElement() complexElement
    }
    class complexElement << (S,Aquamarine) >> {
        - attributeY string
        - attributeZ int

    }
}

"builder.director" *- - "builder.iBuilder"

"builder.iBuilder" <|.. "builder.customElementA"
"builder.iBuilder" <|.. "builder.customElementB"

"builder.iBuilder" .[dotted,thickness=1]> "builder.complexElement"


@enduml

PlantUML version 1.2022.13(Sat Nov 19 13:22:17 UTC 2022)
(GPL source distribution)
Java Runtime: OpenJDK Runtime Environment
JVM: OpenJDK 64-Bit Server VM
Default Encoding: UTF-8
Language: en
Country: null
--></g></svg>