<?xml version="1.0" encoding="UTF-8" standalone="no"?><svg xmlns="http://www.w3.org/2000/svg" xmlns:xlink="http://www.w3.org/1999/xlink" contentStyleType="text/css" height="507px" preserveAspectRatio="none" style="width:683px;height:507px;background:#FFFFFF;" version="1.1" viewBox="0 0 683 507" width="683px" zoomAndPan="magnify"><defs/><g><!--MD5=[10791e4a4fa1a552707e3ba10d72d969]
cluster builder--><g id="cluster_builder"><path d="M8.5,6 L64.5,6 A3.75,3.75 0 0 1 67,8.5 L74,28.2969 L673.5,28.2969 A2.5,2.5 0 0 1 676,30.7969 L676,497.5 A2.5,2.5 0 0 1 673.5,500 L8.5,500 A2.5,2.5 0 0 1 6,497.5 L6,8.5 A2.5,2.5 0 0 1 8.5,6 " fill="none" style="stroke:#000000;stroke-width:1.5;"/><line style="stroke:#000000;stroke-width:1.5;" x1="6" x2="74" y1="28.2969" y2="28.2969"/><text fill="#000000" font-family="sans-serif" font-size="14" font-weight="bold" lengthAdjust="spacing" textLength="55" x="10" y="20.9951">builder</text></g><!--MD5=[6f60a302078dc142d1ed22e65704def8]
class builder.customElementA--><g id="elem_builder.customElementA"><rect codeLine="3" fill="#F1F1F1" height="129.4844" id="builder.customElementA" rx="2.5" ry="2.5" style="stroke:#181818;stroke-width:0.5;" width="301" x="22.5" y="355"/><ellipse cx="109.75" cy="371" fill="#7FFFD4" rx="11" ry="11" style="stroke:#181818;stroke-width:1.0;"/><path d="M109.2344,371.5625 Q107.375,370.8594 106.7188,370.0938 Q106.0781,369.3125 106.0781,368 Q106.0781,366.3125 107.1563,365.3438 Q108.2344,364.375 110.1094,364.375 Q110.9688,364.375 111.8125,364.5781 Q112.6719,364.7656 113.5156,365.1563 L113.5156,367.5469 Q112.7344,366.9844 111.9063,366.7031 Q111.0938,366.4063 110.2969,366.4063 Q109.4219,366.4063 108.9375,366.7656 Q108.4688,367.125 108.4688,367.7813 Q108.4688,368.2969 108.8125,368.6406 Q109.1563,368.9688 110.25,369.375 L111.3125,369.7813 Q112.7969,370.3281 113.5,371.2344 Q114.2188,372.1406 114.2188,373.5156 Q114.2188,375.3906 113.1094,376.3125 Q112,377.2344 109.75,377.2344 Q108.8281,377.2344 107.9063,377.0156 Q106.9844,376.7969 106.125,376.375 L106.125,373.8438 Q107.0938,374.5313 108.0156,374.875 Q108.9375,375.2188 109.8281,375.2188 Q110.7344,375.2188 111.2344,374.8125 Q111.7344,374.3906 111.7344,373.6563 Q111.7344,373.0938 111.3906,372.6875 Q111.0625,372.2656 110.4375,372.0156 L109.2344,371.5625 Z " fill="#000000"/><text fill="#000000" font-family="sans-serif" font-size="14" lengthAdjust="spacing" textLength="118" x="130.25" y="375.8467">customElementA</text><line style="stroke:#181818;stroke-width:0.5;" x1="23.5" x2="322.5" y1="387" y2="387"/><rect fill="none" height="6" style="stroke:#C82930;stroke-width:1.0;" width="6" x="30.5" y="397.6484"/><text fill="#000000" font-family="sans-serif" font-size="14" lengthAdjust="spacing" textLength="110" x="42.5" y="403.9951">attributeY string</text><rect fill="none" height="6" style="stroke:#C82930;stroke-width:1.0;" width="6" x="30.5" y="413.9453"/><text fill="#000000" font-family="sans-serif" font-size="14" lengthAdjust="spacing" textLength="89" x="42.5" y="420.292">attributeZ int</text><line style="stroke:#181818;stroke-width:0.5;" x1="23.5" x2="322.5" y1="427.5938" y2="427.5938"/><rect fill="#F24D5C" height="6" style="stroke:#C82930;stroke-width:1.0;" width="6" x="30.5" y="438.2422"/><text fill="#000000" font-family="sans-serif" font-size="14" lengthAdjust="spacing" textLength="100" x="42.5" y="444.5889">setAttributeY()</text><rect fill="#F24D5C" height="6" style="stroke:#C82930;stroke-width:1.0;" width="6" x="30.5" y="454.5391"/><text fill="#000000" font-family="sans-serif" font-size="14" lengthAdjust="spacing" textLength="101" x="42.5" y="460.8857">setAttributeZ()</text><rect fill="#F24D5C" height="6" style="stroke:#C82930;stroke-width:1.0;" width="6" x="30.5" y="470.8359"/><text fill="#000000" font-family="sans-serif" font-size="14" lengthAdjust="spacing" textLength="275" x="42.5" y="477.1826">newComplexElement() complexElement</text></g><!--MD5=[4338211bf8921c626e787f86c3c44537]
class builder.customElementB--><g id="elem_builder.customElementB"><rect codeLine="12" fill="#F1F1F1" height="129.4844" id="builder.customElementB" rx="2.5" ry="2.5" style="stroke:#181818;stroke-width:0.5;" width="301" x="358.5" y="355"/><ellipse cx="445.25" cy="371" fill="#7FFFD4" rx="11" ry="11" style="stroke:#181818;stroke-width:1.0;"/><path d="M444.7344,371.5625 Q442.875,370.8594 442.2188,370.0938 Q441.5781,369.3125 441.5781,368 Q441.5781,366.3125 442.6563,365.3438 Q443.7344,364.375 445.6094,364.375 Q446.4688,364.375 447.3125,364.5781 Q448.1719,364.7656 449.0156,365.1563 L449.0156,367.5469 Q448.2344,366.9844 447.4063,366.7031 Q446.5938,366.4063 445.7969,366.4063 Q444.9219,366.4063 444.4375,366.7656 Q443.9688,367.125 443.9688,367.7813 Q443.9688,368.2969 444.3125,368.6406 Q444.6563,368.9688 445.75,369.375 L446.8125,369.7813 Q448.2969,370.3281 449,371.2344 Q449.7188,372.1406 449.7188,373.5156 Q449.7188,375.3906 448.6094,376.3125 Q447.5,377.2344 445.25,377.2344 Q444.3281,377.2344 443.4063,377.0156 Q442.4844,376.7969 441.625,376.375 L441.625,373.8438 Q442.5938,374.5313 443.5156,374.875 Q444.4375,375.2188 445.3281,375.2188 Q446.2344,375.2188 446.7344,374.8125 Q447.2344,374.3906 447.2344,373.6563 Q447.2344,373.0938 446.8906,372.6875 Q446.5625,372.2656 445.9375,372.0156 L444.7344,371.5625 Z " fill="#000000"/><text fill="#000000" font-family="sans-serif" font-size="14" lengthAdjust="spacing" textLength="119" x="465.75" y="375.8467">customElementB</text><line style="stroke:#181818;stroke-width:0.5;" x1="359.5" x2="658.5" y1="387" y2="387"/><rect fill="none" height="6" style="stroke:#C82930;stroke-width:1.0;" width="6" x="366.5" y="397.6484"/><text fill="#000000" font-family="sans-serif" font-size="14" lengthAdjust="spacing" textLength="110" x="378.5" y="403.9951">attributeY string</text><rect fill="none" height="6" style="stroke:#C82930;stroke-width:1.0;" width="6" x="366.5" y="413.9453"/><text fill="#000000" font-family="sans-serif" font-size="14" lengthAdjust="spacing" textLength="89" x="378.5" y="420.292">attributeZ int</text><line style="stroke:#181818;stroke-width:0.5;" x1="359.5" x2="658.5" y1="427.5938" y2="427.5938"/><rect fill="#F24D5C" height="6" style="stroke:#C82930;stroke-width:1.0;" width="6" x="366.5" y="438.2422"/><text fill="#000000" font-family="sans-serif" font-size="14" lengthAdjust="spacing" textLength="100" x="378.5" y="444.5889">setAttributeY()</text><rect fill="#F24D5C" height="6" style="stroke:#C82930;stroke-width:1.0;" width="6" x="366.5" y="454.5391"/><text fill="#000000" font-family="sans-serif" font-size="14" lengthAdjust="spacing" textLength="101" x="378.5" y="460.8857">setAttributeZ()</text><rect fill="#F24D5C" height="6" style="stroke:#C82930;stroke-width:1.0;" width="6" x="366.5" y="470.8359"/><text fill="#000000" font-family="sans-serif" font-size="14" lengthAdjust="spacing" textLength="275" x="378.5" y="477.1826">newComplexElement() complexElement</text></g><!--MD5=[5588c9b32e015146eaaf10c5debbc104]
class builder.director--><g id="elem_builder.director"><rect codeLine="21" fill="#F1F1F1" height="96.8906" id="builder.director" rx="2.5" ry="2.5" style="stroke:#181818;stroke-width:0.5;" width="392" x="76" y="41"/><ellipse cx="241.25" cy="57" fill="#7FFFD4" rx="11" ry="11" style="stroke:#181818;stroke-width:1.0;"/><path d="M240.7344,57.5625 Q238.875,56.8594 238.2188,56.0938 Q237.5781,55.3125 237.5781,54 Q237.5781,52.3125 238.6563,51.3438 Q239.7344,50.375 241.6094,50.375 Q242.4688,50.375 243.3125,50.5781 Q244.1719,50.7656 245.0156,51.1563 L245.0156,53.5469 Q244.2344,52.9844 243.4063,52.7031 Q242.5938,52.4063 241.7969,52.4063 Q240.9219,52.4063 240.4375,52.7656 Q239.9688,53.125 239.9688,53.7813 Q239.9688,54.2969 240.3125,54.6406 Q240.6563,54.9688 241.75,55.375 L242.8125,55.7813 Q244.2969,56.3281 245,57.2344 Q245.7188,58.1406 245.7188,59.5156 Q245.7188,61.3906 244.6094,62.3125 Q243.5,63.2344 241.25,63.2344 Q240.3281,63.2344 239.4063,63.0156 Q238.4844,62.7969 237.625,62.375 L237.625,59.8438 Q238.5938,60.5313 239.5156,60.875 Q240.4375,61.2188 241.3281,61.2188 Q242.2344,61.2188 242.7344,60.8125 Q243.2344,60.3906 243.2344,59.6563 Q243.2344,59.0938 242.8906,58.6875 Q242.5625,58.2656 241.9375,58.0156 L240.7344,57.5625 Z " fill="#000000"/><text fill="#000000" font-family="sans-serif" font-size="14" lengthAdjust="spacing" textLength="53" x="261.75" y="61.8467">director</text><line style="stroke:#181818;stroke-width:0.5;" x1="77" x2="467" y1="73" y2="73"/><rect fill="none" height="6" style="stroke:#C82930;stroke-width:1.0;" width="6" x="84" y="83.6484"/><text fill="#000000" font-family="sans-serif" font-size="14" lengthAdjust="spacing" textLength="194" x="96" y="89.9951">builderConfiguration iBuilder</text><line style="stroke:#181818;stroke-width:0.5;" x1="77" x2="467" y1="97.2969" y2="97.2969"/><rect fill="#F24D5C" height="6" style="stroke:#C82930;stroke-width:1.0;" width="6" x="84" y="107.9453"/><text fill="#000000" font-family="sans-serif" font-size="14" lengthAdjust="spacing" textLength="366" x="96" y="114.292">setBuilderConfiguration(builderConfiguration iBuilder)</text><rect fill="#F24D5C" height="6" style="stroke:#C82930;stroke-width:1.0;" width="6" x="84" y="124.2422"/><text fill="#000000" font-family="sans-serif" font-size="14" lengthAdjust="spacing" textLength="269" x="96" y="130.5889">getComplexElement() complexElement</text></g><!--MD5=[7e3d77cdc09a702d90bc1ea56ccc22e9]
class builder.iBuilder--><g id="elem_builder.iBuilder"><rect codeLine="28" fill="#F1F1F1" height="96.8906" id="builder.iBuilder" rx="2.5" ry="2.5" style="stroke:#181818;stroke-width:0.5;" width="301" x="121.5" y="198"/><ellipse cx="242.25" cy="214" fill="#B4A7E5" rx="11" ry="11" style="stroke:#181818;stroke-width:1.0;"/><path d="M238.1719,209.7656 L238.1719,207.6094 L245.5625,207.6094 L245.5625,209.7656 L243.0938,209.7656 L243.0938,217.8438 L245.5625,217.8438 L245.5625,220 L238.1719,220 L238.1719,217.8438 L240.6406,217.8438 L240.6406,209.7656 L238.1719,209.7656 Z " fill="#000000"/><text fill="#000000" font-family="sans-serif" font-size="14" font-style="italic" lengthAdjust="spacing" textLength="51" x="262.75" y="218.8467">iBuilder</text><line style="stroke:#181818;stroke-width:0.5;" x1="122.5" x2="421.5" y1="230" y2="230"/><line style="stroke:#181818;stroke-width:0.5;" x1="122.5" x2="421.5" y1="238" y2="238"/><rect fill="#F24D5C" height="6" style="stroke:#C82930;stroke-width:1.0;" width="6" x="129.5" y="248.6484"/><text fill="#000000" font-family="sans-serif" font-size="14" lengthAdjust="spacing" textLength="100" x="141.5" y="254.9951">setAttributeY()</text><rect fill="#F24D5C" height="6" style="stroke:#C82930;stroke-width:1.0;" width="6" x="129.5" y="264.9453"/><text fill="#000000" font-family="sans-serif" font-size="14" lengthAdjust="spacing" textLength="101" x="141.5" y="271.292">setAttributeZ()</text><rect fill="#F24D5C" height="6" style="stroke:#C82930;stroke-width:1.0;" width="6" x="129.5" y="281.2422"/><text fill="#000000" font-family="sans-serif" font-size="14" lengthAdjust="spacing" textLength="275" x="141.5" y="287.5889">newComplexElement() complexElement</text></g><!--MD5=[6cb23e30aa5bd020f07cabeff0fc393d]
class builder.complexElement--><g id="elem_builder.complexElement"><rect codeLine="34" fill="#F1F1F1" height="80.5938" id="builder.complexElement" rx="2.5" ry="2.5" style="stroke:#181818;stroke-width:0.5;" width="147" x="457.5" y="206"/><ellipse cx="472.5" cy="222" fill="#7FFFD4" rx="11" ry="11" style="stroke:#181818;stroke-width:1.0;"/><path d="M471.9844,222.5625 Q470.125,221.8594 469.4688,221.0938 Q468.8281,220.3125 468.8281,219 Q468.8281,217.3125 469.9063,216.3438 Q470.9844,215.375 472.8594,215.375 Q473.7188,215.375 474.5625,215.5781 Q475.4219,215.7656 476.2656,216.1563 L476.2656,218.5469 Q475.4844,217.9844 474.6563,217.7031 Q473.8438,217.4063 473.0469,217.4063 Q472.1719,217.4063 471.6875,217.7656 Q471.2188,218.125 471.2188,218.7813 Q471.2188,219.2969 471.5625,219.6406 Q471.9063,219.9688 473,220.375 L474.0625,220.7813 Q475.5469,221.3281 476.25,222.2344 Q476.9688,223.1406 476.9688,224.5156 Q476.9688,226.3906 475.8594,227.3125 Q474.75,228.2344 472.5,228.2344 Q471.5781,228.2344 470.6563,228.0156 Q469.7344,227.7969 468.875,227.375 L468.875,224.8438 Q469.8438,225.5313 470.7656,225.875 Q471.6875,226.2188 472.5781,226.2188 Q473.4844,226.2188 473.9844,225.8125 Q474.4844,225.3906 474.4844,224.6563 Q474.4844,224.0938 474.1406,223.6875 Q473.8125,223.2656 473.1875,223.0156 L471.9844,222.5625 Z " fill="#000000"/><text fill="#000000" font-family="sans-serif" font-size="14" lengthAdjust="spacing" textLength="115" x="486.5" y="226.8467">complexElement</text><line style="stroke:#181818;stroke-width:0.5;" x1="458.5" x2="603.5" y1="238" y2="238"/><rect fill="none" height="6" style="stroke:#C82930;stroke-width:1.0;" width="6" x="465.5" y="248.6484"/><text fill="#000000" font-family="sans-serif" font-size="14" lengthAdjust="spacing" textLength="110" x="477.5" y="254.9951">attributeY string</text><rect fill="none" height="6" style="stroke:#C82930;stroke-width:1.0;" width="6" x="465.5" y="264.9453"/><text fill="#000000" font-family="sans-serif" font-size="14" lengthAdjust="spacing" textLength="89" x="477.5" y="271.292">attributeZ int</text><line style="stroke:#181818;stroke-width:0.5;" x1="458.5" x2="603.5" y1="278.5938" y2="278.5938"/></g><!--MD5=[ea44d94ef726c782669ebe4c63d1f7e9]
link builder.director to builder.iBuilder--><g id="link_builder.director_builder.iBuilder"><path codeLine="41" d="M272,150.27 C272,150.27 272,173.89 272,184.83 " fill="none" id="builder.director-builder.iBuilder" style="stroke:#181818;stroke-width:1.0;"/><polygon fill="#181818" points="272,138.27,268,144.27,272,150.27,276,144.27,272,138.27" style="stroke:#181818;stroke-width:1.0;"/><polygon fill="#181818" points="272,197.89,276,188.89,272,192.89,268,188.89,272,197.89" style="stroke:#181818;stroke-width:1.0;"/><line style="stroke:#181818;stroke-width:1.0;" x1="272" x2="272" y1="192.89" y2="184.89"/></g><!--MD5=[3e5d27b202a8ad4e13b3b3fd0f30243e]
reverse link builder.iBuilder to builder.customElementA--><g id="link_builder.iBuilder_builder.customElementA"><path codeLine="47" d="M234.24,312.72 C226.25,326.52 217.83,341.07 209.87,354.82 " fill="none" id="builder.iBuilder-backto-builder.customElementA" style="stroke:#181818;stroke-width:1.0;stroke-dasharray:7.0,7.0;"/><polygon fill="none" points="228.34,308.93,244.42,295.13,240.46,315.95,228.34,308.93" style="stroke:#181818;stroke-width:1.0;"/></g><!--MD5=[855769bba614e2da3d4f28055a1b6175]
reverse link builder.iBuilder to builder.customElementB--><g id="link_builder.iBuilder_builder.customElementB"><path codeLine="48" d="M354.4,306.95 C375.83,322.42 399.01,339.14 420.74,354.82 " fill="none" id="builder.iBuilder-backto-builder.customElementB" style="stroke:#181818;stroke-width:1.0;stroke-dasharray:7.0,7.0;"/><polygon fill="none" points="350.14,312.51,338.02,295.13,358.33,301.16,350.14,312.51" style="stroke:#181818;stroke-width:1.0;"/></g><!--MD5=[4f13b7519511390f92347b76b1306a21]
link builder.iBuilder to builder.complexElement--><g id="link_builder.iBuilder_builder.complexElement"><path codeLine="51" d="M422.75,246.5 C432.59,246.5 442.43,246.5 452.27,246.5 " fill="none" id="builder.iBuilder-to-builder.complexElement" style="stroke:#181818;stroke-width:1.0;stroke-dasharray:7.0,7.0;"/><polygon fill="#181818" points="457.42,246.5,448.42,242.5,452.42,246.5,448.42,250.5,457.42,246.5" style="stroke:#181818;stroke-width:1.0;"/></g><!--MD5=[71ffca8768a3e3c7c0763c970fe54a3b]
@startuml builder

namespace builder {
    class customElementA << (S,Aquamarine) >> {
        - attributeY string
        - attributeZ int

        - setAttributeY() 
        - setAttributeZ() 
        - newComplexElement() complexElement

    }
    class customElementB << (S,Aquamarine) >> {
        - attributeY string
        - attributeZ int

        - setAttributeY() 
        - setAttributeZ() 
        - newComplexElement() complexElement

    }
    class director << (S,Aquamarine) >> {
        - builderConfiguration iBuilder

        - setBuilderConfiguration(builderConfiguration iBuilder) 
        - getComplexElement() complexElement

    }
    interface iBuilder  {
        - setAttributeY() 
        - setAttributeZ() 
        - newComplexElement() complexElement

    }
    class complexElement << (S,Aquamarine) >> {
        - attributeY string
        - attributeZ int

    }
}

"builder.director" *- -> "builder.iBuilder"

/' together {
    class builder.customElementA
    class builder.customElementB
} '/
"builder.iBuilder" <|.. "builder.customElementA"
"builder.iBuilder" <|.. "builder.customElementB"

'hide builder.complexElement
"builder.iBuilder" .> "builder.complexElement"
'"builder.iBuilder" .[dotted,thickness=1]> "builder.complexElement"


@enduml

@startuml builder

namespace builder {
    class customElementA << (S,Aquamarine) >> {
        - attributeY string
        - attributeZ int

        - setAttributeY() 
        - setAttributeZ() 
        - newComplexElement() complexElement

    }
    class customElementB << (S,Aquamarine) >> {
        - attributeY string
        - attributeZ int

        - setAttributeY() 
        - setAttributeZ() 
        - newComplexElement() complexElement

    }
    class director << (S,Aquamarine) >> {
        - builderConfiguration iBuilder

        - setBuilderConfiguration(builderConfiguration iBuilder) 
        - getComplexElement() complexElement

    }
    interface iBuilder  {
        - setAttributeY() 
        - setAttributeZ() 
        - newComplexElement() complexElement

    }
    class complexElement << (S,Aquamarine) >> {
        - attributeY string
        - attributeZ int

    }
}

"builder.director" *- -> "builder.iBuilder"

"builder.iBuilder" <|.. "builder.customElementA"
"builder.iBuilder" <|.. "builder.customElementB"

"builder.iBuilder" .> "builder.complexElement"


@enduml

PlantUML version 1.2022.13(Sat Nov 19 13:22:17 UTC 2022)
(GPL source distribution)
Java Runtime: OpenJDK Runtime Environment
JVM: OpenJDK 64-Bit Server VM
Default Encoding: UTF-8
Language: en
Country: null
--></g></svg>