<?xml version="1.0" encoding="UTF-8" standalone="no"?><svg xmlns="http://www.w3.org/2000/svg" xmlns:xlink="http://www.w3.org/1999/xlink" contentStyleType="text/css" height="399px" preserveAspectRatio="none" style="width:903px;height:399px;background:#FFFFFF;" version="1.1" viewBox="0 0 903 399" width="903px" zoomAndPan="magnify"><defs/><g><!--MD5=[a70b0d373322012744ecc119c63f921b]
cluster main--><g id="cluster_main"><path d="M8.5,6 L46.5,6 A3.75,3.75 0 0 1 49,8.5 L56,28.2969 L893.5,28.2969 A2.5,2.5 0 0 1 896,30.7969 L896,389.5 A2.5,2.5 0 0 1 893.5,392 L8.5,392 A2.5,2.5 0 0 1 6,389.5 L6,8.5 A2.5,2.5 0 0 1 8.5,6 " fill="none" style="stroke:#000000;stroke-width:1.5;"/><line style="stroke:#000000;stroke-width:1.5;" x1="6" x2="56" y1="28.2969" y2="28.2969"/><text fill="#000000" font-family="sans-serif" font-size="14" font-weight="bold" lengthAdjust="spacing" textLength="37" x="10" y="20.9951">main</text></g><!--MD5=[b6960b9ed74e13dc02963edb4b6d2dc9]
class main.complexElement--><g id="elem_main.complexElement"><rect codeLine="2" fill="#F1F1F1" height="96.8906" id="main.complexElement" rx="2.5" ry="2.5" style="stroke:#181818;stroke-width:0.5;" width="147" x="732.5" y="49"/><ellipse cx="747.5" cy="65" fill="#7FFFD4" rx="11" ry="11" style="stroke:#181818;stroke-width:1.0;"/><path d="M746.9844,65.5625 Q745.125,64.8594 744.4688,64.0938 Q743.8281,63.3125 743.8281,62 Q743.8281,60.3125 744.9063,59.3438 Q745.9844,58.375 747.8594,58.375 Q748.7188,58.375 749.5625,58.5781 Q750.4219,58.7656 751.2656,59.1563 L751.2656,61.5469 Q750.4844,60.9844 749.6563,60.7031 Q748.8438,60.4063 748.0469,60.4063 Q747.1719,60.4063 746.6875,60.7656 Q746.2188,61.125 746.2188,61.7813 Q746.2188,62.2969 746.5625,62.6406 Q746.9063,62.9688 748,63.375 L749.0625,63.7813 Q750.5469,64.3281 751.25,65.2344 Q751.9688,66.1406 751.9688,67.5156 Q751.9688,69.3906 750.8594,70.3125 Q749.75,71.2344 747.5,71.2344 Q746.5781,71.2344 745.6563,71.0156 Q744.7344,70.7969 743.875,70.375 L743.875,67.8438 Q744.8438,68.5313 745.7656,68.875 Q746.6875,69.2188 747.5781,69.2188 Q748.4844,69.2188 748.9844,68.8125 Q749.4844,68.3906 749.4844,67.6563 Q749.4844,67.0938 749.1406,66.6875 Q748.8125,66.2656 748.1875,66.0156 L746.9844,65.5625 Z " fill="#000000"/><text fill="#000000" font-family="sans-serif" font-size="14" lengthAdjust="spacing" textLength="115" x="761.5" y="69.8467">complexElement</text><line style="stroke:#181818;stroke-width:0.5;" x1="733.5" x2="878.5" y1="81" y2="81"/><rect fill="none" height="6" style="stroke:#C82930;stroke-width:1.0;" width="6" x="740.5" y="91.6484"/><text fill="#000000" font-family="sans-serif" font-size="14" lengthAdjust="spacing" textLength="110" x="752.5" y="97.9951">attributeA string</text><rect fill="none" height="6" style="stroke:#C82930;stroke-width:1.0;" width="6" x="740.5" y="107.9453"/><text fill="#000000" font-family="sans-serif" font-size="14" lengthAdjust="spacing" textLength="111" x="752.5" y="114.292">attributeB string</text><rect fill="none" height="6" style="stroke:#C82930;stroke-width:1.0;" width="6" x="740.5" y="124.2422"/><text fill="#000000" font-family="sans-serif" font-size="14" lengthAdjust="spacing" textLength="89" x="752.5" y="130.5889">attributeC int</text><line style="stroke:#181818;stroke-width:0.5;" x1="733.5" x2="878.5" y1="137.8906" y2="137.8906"/></g><!--MD5=[bec2c5195c6be3a1c7cb8f5b36d482a0]
class main.customElementA--><g id="elem_main.customElementA"><rect codeLine="8" fill="#F1F1F1" height="162.0781" id="main.customElementA" rx="2.5" ry="2.5" style="stroke:#181818;stroke-width:0.5;" width="301" x="22.5" y="214"/><ellipse cx="109.75" cy="230" fill="#7FFFD4" rx="11" ry="11" style="stroke:#181818;stroke-width:1.0;"/><path d="M109.2344,230.5625 Q107.375,229.8594 106.7188,229.0938 Q106.0781,228.3125 106.0781,227 Q106.0781,225.3125 107.1563,224.3438 Q108.2344,223.375 110.1094,223.375 Q110.9688,223.375 111.8125,223.5781 Q112.6719,223.7656 113.5156,224.1563 L113.5156,226.5469 Q112.7344,225.9844 111.9063,225.7031 Q111.0938,225.4063 110.2969,225.4063 Q109.4219,225.4063 108.9375,225.7656 Q108.4688,226.125 108.4688,226.7813 Q108.4688,227.2969 108.8125,227.6406 Q109.1563,227.9688 110.25,228.375 L111.3125,228.7813 Q112.7969,229.3281 113.5,230.2344 Q114.2188,231.1406 114.2188,232.5156 Q114.2188,234.3906 113.1094,235.3125 Q112,236.2344 109.75,236.2344 Q108.8281,236.2344 107.9063,236.0156 Q106.9844,235.7969 106.125,235.375 L106.125,232.8438 Q107.0938,233.5313 108.0156,233.875 Q108.9375,234.2188 109.8281,234.2188 Q110.7344,234.2188 111.2344,233.8125 Q111.7344,233.3906 111.7344,232.6563 Q111.7344,232.0938 111.3906,231.6875 Q111.0625,231.2656 110.4375,231.0156 L109.2344,230.5625 Z " fill="#000000"/><text fill="#000000" font-family="sans-serif" font-size="14" lengthAdjust="spacing" textLength="118" x="130.25" y="234.8467">customElementA</text><line style="stroke:#181818;stroke-width:0.5;" x1="23.5" x2="322.5" y1="246" y2="246"/><rect fill="none" height="6" style="stroke:#C82930;stroke-width:1.0;" width="6" x="30.5" y="256.6484"/><text fill="#000000" font-family="sans-serif" font-size="14" lengthAdjust="spacing" textLength="110" x="42.5" y="262.9951">attributeA string</text><rect fill="none" height="6" style="stroke:#C82930;stroke-width:1.0;" width="6" x="30.5" y="272.9453"/><text fill="#000000" font-family="sans-serif" font-size="14" lengthAdjust="spacing" textLength="111" x="42.5" y="279.292">attributeB string</text><rect fill="none" height="6" style="stroke:#C82930;stroke-width:1.0;" width="6" x="30.5" y="289.2422"/><text fill="#000000" font-family="sans-serif" font-size="14" lengthAdjust="spacing" textLength="89" x="42.5" y="295.5889">attributeC int</text><line style="stroke:#181818;stroke-width:0.5;" x1="23.5" x2="322.5" y1="302.8906" y2="302.8906"/><rect fill="#F24D5C" height="6" style="stroke:#C82930;stroke-width:1.0;" width="6" x="30.5" y="313.5391"/><text fill="#000000" font-family="sans-serif" font-size="14" lengthAdjust="spacing" textLength="100" x="42.5" y="319.8857">setAttributeA()</text><rect fill="#F24D5C" height="6" style="stroke:#C82930;stroke-width:1.0;" width="6" x="30.5" y="329.8359"/><text fill="#000000" font-family="sans-serif" font-size="14" lengthAdjust="spacing" textLength="101" x="42.5" y="336.1826">setAttributeB()</text><rect fill="#F24D5C" height="6" style="stroke:#C82930;stroke-width:1.0;" width="6" x="30.5" y="346.1328"/><text fill="#000000" font-family="sans-serif" font-size="14" lengthAdjust="spacing" textLength="101" x="42.5" y="352.4795">setAttributeC()</text><rect fill="#F24D5C" height="6" style="stroke:#C82930;stroke-width:1.0;" width="6" x="30.5" y="362.4297"/><text fill="#000000" font-family="sans-serif" font-size="14" lengthAdjust="spacing" textLength="275" x="42.5" y="368.7764">newComplexElement() complexElement</text></g><!--MD5=[b9f0e67f275f01e58c754c7649804f6c]
class main.customElementB--><g id="elem_main.customElementB"><rect codeLine="19" fill="#F1F1F1" height="162.0781" id="main.customElementB" rx="2.5" ry="2.5" style="stroke:#181818;stroke-width:0.5;" width="301" x="358.5" y="214"/><ellipse cx="445.25" cy="230" fill="#7FFFD4" rx="11" ry="11" style="stroke:#181818;stroke-width:1.0;"/><path d="M444.7344,230.5625 Q442.875,229.8594 442.2188,229.0938 Q441.5781,228.3125 441.5781,227 Q441.5781,225.3125 442.6563,224.3438 Q443.7344,223.375 445.6094,223.375 Q446.4688,223.375 447.3125,223.5781 Q448.1719,223.7656 449.0156,224.1563 L449.0156,226.5469 Q448.2344,225.9844 447.4063,225.7031 Q446.5938,225.4063 445.7969,225.4063 Q444.9219,225.4063 444.4375,225.7656 Q443.9688,226.125 443.9688,226.7813 Q443.9688,227.2969 444.3125,227.6406 Q444.6563,227.9688 445.75,228.375 L446.8125,228.7813 Q448.2969,229.3281 449,230.2344 Q449.7188,231.1406 449.7188,232.5156 Q449.7188,234.3906 448.6094,235.3125 Q447.5,236.2344 445.25,236.2344 Q444.3281,236.2344 443.4063,236.0156 Q442.4844,235.7969 441.625,235.375 L441.625,232.8438 Q442.5938,233.5313 443.5156,233.875 Q444.4375,234.2188 445.3281,234.2188 Q446.2344,234.2188 446.7344,233.8125 Q447.2344,233.3906 447.2344,232.6563 Q447.2344,232.0938 446.8906,231.6875 Q446.5625,231.2656 445.9375,231.0156 L444.7344,230.5625 Z " fill="#000000"/><text fill="#000000" font-family="sans-serif" font-size="14" lengthAdjust="spacing" textLength="119" x="465.75" y="234.8467">customElementB</text><line style="stroke:#181818;stroke-width:0.5;" x1="359.5" x2="658.5" y1="246" y2="246"/><rect fill="none" height="6" style="stroke:#C82930;stroke-width:1.0;" width="6" x="366.5" y="256.6484"/><text fill="#000000" font-family="sans-serif" font-size="14" lengthAdjust="spacing" textLength="110" x="378.5" y="262.9951">attributeA string</text><rect fill="none" height="6" style="stroke:#C82930;stroke-width:1.0;" width="6" x="366.5" y="272.9453"/><text fill="#000000" font-family="sans-serif" font-size="14" lengthAdjust="spacing" textLength="111" x="378.5" y="279.292">attributeB string</text><rect fill="none" height="6" style="stroke:#C82930;stroke-width:1.0;" width="6" x="366.5" y="289.2422"/><text fill="#000000" font-family="sans-serif" font-size="14" lengthAdjust="spacing" textLength="89" x="378.5" y="295.5889">attributeC int</text><line style="stroke:#181818;stroke-width:0.5;" x1="359.5" x2="658.5" y1="302.8906" y2="302.8906"/><rect fill="#F24D5C" height="6" style="stroke:#C82930;stroke-width:1.0;" width="6" x="366.5" y="313.5391"/><text fill="#000000" font-family="sans-serif" font-size="14" lengthAdjust="spacing" textLength="100" x="378.5" y="319.8857">setAttributeA()</text><rect fill="#F24D5C" height="6" style="stroke:#C82930;stroke-width:1.0;" width="6" x="366.5" y="329.8359"/><text fill="#000000" font-family="sans-serif" font-size="14" lengthAdjust="spacing" textLength="101" x="378.5" y="336.1826">setAttributeB()</text><rect fill="#F24D5C" height="6" style="stroke:#C82930;stroke-width:1.0;" width="6" x="366.5" y="346.1328"/><text fill="#000000" font-family="sans-serif" font-size="14" lengthAdjust="spacing" textLength="101" x="378.5" y="352.4795">setAttributeC()</text><rect fill="#F24D5C" height="6" style="stroke:#C82930;stroke-width:1.0;" width="6" x="366.5" y="362.4297"/><text fill="#000000" font-family="sans-serif" font-size="14" lengthAdjust="spacing" textLength="275" x="378.5" y="368.7764">newComplexElement() complexElement</text></g><!--MD5=[a558cb67de36c475fddfeb8eab3f2088]
class main.director--><g id="elem_main.director"><rect codeLine="30" fill="#F1F1F1" height="96.8906" id="main.director" rx="2.5" ry="2.5" style="stroke:#181818;stroke-width:0.5;" width="339" x="358.5" y="49"/><ellipse cx="497.25" cy="65" fill="#7FFFD4" rx="11" ry="11" style="stroke:#181818;stroke-width:1.0;"/><path d="M496.7344,65.5625 Q494.875,64.8594 494.2188,64.0938 Q493.5781,63.3125 493.5781,62 Q493.5781,60.3125 494.6563,59.3438 Q495.7344,58.375 497.6094,58.375 Q498.4688,58.375 499.3125,58.5781 Q500.1719,58.7656 501.0156,59.1563 L501.0156,61.5469 Q500.2344,60.9844 499.4063,60.7031 Q498.5938,60.4063 497.7969,60.4063 Q496.9219,60.4063 496.4375,60.7656 Q495.9688,61.125 495.9688,61.7813 Q495.9688,62.2969 496.3125,62.6406 Q496.6563,62.9688 497.75,63.375 L498.8125,63.7813 Q500.2969,64.3281 501,65.2344 Q501.7188,66.1406 501.7188,67.5156 Q501.7188,69.3906 500.6094,70.3125 Q499.5,71.2344 497.25,71.2344 Q496.3281,71.2344 495.4063,71.0156 Q494.4844,70.7969 493.625,70.375 L493.625,67.8438 Q494.5938,68.5313 495.5156,68.875 Q496.4375,69.2188 497.3281,69.2188 Q498.2344,69.2188 498.7344,68.8125 Q499.2344,68.3906 499.2344,67.6563 Q499.2344,67.0938 498.8906,66.6875 Q498.5625,66.2656 497.9375,66.0156 L496.7344,65.5625 Z " fill="#000000"/><text fill="#000000" font-family="sans-serif" font-size="14" lengthAdjust="spacing" textLength="53" x="517.75" y="69.8467">director</text><line style="stroke:#181818;stroke-width:0.5;" x1="359.5" x2="696.5" y1="81" y2="81"/><rect fill="none" height="6" style="stroke:#C82930;stroke-width:1.0;" width="6" x="366.5" y="91.6484"/><text fill="#000000" font-family="sans-serif" font-size="14" lengthAdjust="spacing" textLength="175" x="378.5" y="97.9951">buildSpecification iBuilder</text><line style="stroke:#181818;stroke-width:0.5;" x1="359.5" x2="696.5" y1="105.2969" y2="105.2969"/><rect fill="#F24D5C" height="6" style="stroke:#C82930;stroke-width:1.0;" width="6" x="366.5" y="115.9453"/><text fill="#000000" font-family="sans-serif" font-size="14" lengthAdjust="spacing" textLength="313" x="378.5" y="122.292">setBuilderConfiguration(specification iBuilder)</text><rect fill="#F24D5C" height="6" style="stroke:#C82930;stroke-width:1.0;" width="6" x="366.5" y="132.2422"/><text fill="#000000" font-family="sans-serif" font-size="14" lengthAdjust="spacing" textLength="279" x="378.5" y="138.5889">buildComplexElement() complexElement</text></g><!--MD5=[b217d7a546bf7e54867485427b8b1137]
class main.iBuilder--><g id="elem_main.iBuilder"><rect codeLine="37" fill="#F1F1F1" height="113.1875" id="main.iBuilder" rx="2.5" ry="2.5" style="stroke:#181818;stroke-width:0.5;" width="301" x="22.5" y="41"/><ellipse cx="143.25" cy="57" fill="#B4A7E5" rx="11" ry="11" style="stroke:#181818;stroke-width:1.0;"/><path d="M139.1719,52.7656 L139.1719,50.6094 L146.5625,50.6094 L146.5625,52.7656 L144.0938,52.7656 L144.0938,60.8438 L146.5625,60.8438 L146.5625,63 L139.1719,63 L139.1719,60.8438 L141.6406,60.8438 L141.6406,52.7656 L139.1719,52.7656 Z " fill="#000000"/><text fill="#000000" font-family="sans-serif" font-size="14" font-style="italic" lengthAdjust="spacing" textLength="51" x="163.75" y="61.8467">iBuilder</text><line style="stroke:#181818;stroke-width:0.5;" x1="23.5" x2="322.5" y1="73" y2="73"/><line style="stroke:#181818;stroke-width:0.5;" x1="23.5" x2="322.5" y1="81" y2="81"/><rect fill="#F24D5C" height="6" style="stroke:#C82930;stroke-width:1.0;" width="6" x="30.5" y="91.6484"/><text fill="#000000" font-family="sans-serif" font-size="14" lengthAdjust="spacing" textLength="100" x="42.5" y="97.9951">setAttributeA()</text><rect fill="#F24D5C" height="6" style="stroke:#C82930;stroke-width:1.0;" width="6" x="30.5" y="107.9453"/><text fill="#000000" font-family="sans-serif" font-size="14" lengthAdjust="spacing" textLength="101" x="42.5" y="114.292">setAttributeB()</text><rect fill="#F24D5C" height="6" style="stroke:#C82930;stroke-width:1.0;" width="6" x="30.5" y="124.2422"/><text fill="#000000" font-family="sans-serif" font-size="14" lengthAdjust="spacing" textLength="101" x="42.5" y="130.5889">setAttributeC()</text><rect fill="#F24D5C" height="6" style="stroke:#C82930;stroke-width:1.0;" width="6" x="30.5" y="140.5391"/><text fill="#000000" font-family="sans-serif" font-size="14" lengthAdjust="spacing" textLength="275" x="42.5" y="146.8857">newComplexElement() complexElement</text></g><!--MD5=[e1cd9428237290ac93a9ce601d4dabce]
reverse link main.iBuilder to main.customElementA--><g id="link_main.iBuilder_main.customElementA"><path codeLine="46" d="M173,174.55 C173,187.4 173,200.78 173,213.74 " fill="none" id="main.iBuilder-backto-main.customElementA" style="stroke:#181818;stroke-width:1.0;"/><polygon fill="none" points="166,174.26,173,154.26,180,174.26,166,174.26" style="stroke:#181818;stroke-width:1.0;"/></g><!--MD5=[70064fc65f06c5ab1fc042841869b186]
reverse link main.iBuilder to main.customElementB--><g id="link_main.iBuilder_main.customElementB"><path codeLine="47" d="M286.42,164.49 C313.69,180.36 343.13,197.49 371.37,213.92 " fill="none" id="main.iBuilder-backto-main.customElementB" style="stroke:#181818;stroke-width:1.0;"/><polygon fill="none" points="282.6,170.37,268.83,154.26,289.64,158.27,282.6,170.37" style="stroke:#181818;stroke-width:1.0;"/></g><!--MD5=[08eeede89c26c73f2243f58d9c879186]
@startuml
namespace main {
    class complexElement << (S,Aquamarine) >> {
        - attributeA string
        - attributeB string
        - attributeC int

    }
    class customElementA << (S,Aquamarine) >> {
        - attributeA string
        - attributeB string
        - attributeC int

        - setAttributeA() 
        - setAttributeB() 
        - setAttributeC() 
        - newComplexElement() complexElement

    }
    class customElementB << (S,Aquamarine) >> {
        - attributeA string
        - attributeB string
        - attributeC int

        - setAttributeA() 
        - setAttributeB() 
        - setAttributeC() 
        - newComplexElement() complexElement

    }
    class director << (S,Aquamarine) >> {
        - buildSpecification iBuilder

        - setBuilderConfiguration(specification iBuilder) 
        - buildComplexElement() complexElement

    }
    interface iBuilder  {
        - setAttributeA() 
        - setAttributeB() 
        - setAttributeC() 
        - newComplexElement() complexElement

    }
}

"main.iBuilder" <|- - "main.customElementA"
"main.iBuilder" <|- - "main.customElementB"

@enduml

PlantUML version 1.2022.13(Sat Nov 19 13:22:17 UTC 2022)
(GPL source distribution)
Java Runtime: OpenJDK Runtime Environment
JVM: OpenJDK 64-Bit Server VM
Default Encoding: UTF-8
Language: en
Country: null
--></g></svg>